# xmcd
#
# Track frame offsets:
#	150
#	20052
#	36250
#	53065
#	67250
#	89095
#	105787
#	119005
#	135802
#	151995
#	167775
#	184882
#	200425
#	215715
#	229792
#	241235
#	259100
#
# Disc length: 3780 seconds
#
# Revision: 0
# Processed by: cddbd v1.5.2PL0 Copyright (c) Steve Scherf et al.
# Submitted via: EasyCDDAExtractor 16.0.6.1
#
DISCID=f30ec211
DTITLE=Λιδάκης Μανώλης - Σαν παλιό κρασί 1
DYEAR=1999
DGENRE=Ποικίλη
TTITLE0=Ξημερώματα 1ης Ιανουαρίου 2000 μ.Χ.
TTITLE1=Χαιρετισμοί
TTITLE2=Μεγάλο παραμύθι
TTITLE3=Με τα φτερά του έρωτα
TTITLE4=Πάλι-πάλι
TTITLE5=Δεν είσαι πουθενά
TTITLE6=Η νύχτα
TTITLE7=Κάτι μού κρύβεις
TTITLE8=Τα πάγια
TTITLE9=Ο γλάρος
TTITLE10=Χαλκίδα
TTITLE11=Και καρτερώ
TTITLE12=Μάτια παλάτια
TTITLE13=Πονεμένη καρδιά
TTITLE14=Έβαλε ο Θεός σημάδι (Παλληκάρι στα σφακιά)
TTITLE15=Είμ' αητός χωρίς φτερά
TTITLE16=Πού το πάνε το παιδί
EXTD=
EXTT0=
EXTT1=
EXTT2=
EXTT3=
EXTT4=
EXTT5=
EXTT6=
EXTT7=
EXTT8=
EXTT9=
EXTT10=
EXTT11=
EXTT12=
EXTT13=
EXTT14=
EXTT15=
EXTT16=
PLAYORDER=
